<svg width="1237.5" height="766.7" xmlns="http://www.w3.org/2000/svg" xmlns:xlink="http://www.w3.org/1999/xlink"><line x1="341.78125" y1="7.5" x2="15.0" y2="32.0" style="stroke:black; stroke-width:1px;" />
<line x1="341.78125" y1="7.5" x2="59.0" y2="32.0" style="stroke:black; stroke-width:1px;" />
<line x1="341.78125" y1="7.5" x2="92.0" y2="32.0" style="stroke:black; stroke-width:1px;" />
<line x1="341.78125" y1="7.5" x2="131.5" y2="32.0" style="stroke:black; stroke-width:1px;" />
<line x1="131.5" y1="39.5" x2="131.5" y2="64.0" style="stroke:black; stroke-width:1px;" />
<line x1="131.5" y1="71.5" x2="98.5" y2="96.0" style="stroke:black; stroke-width:1px;" />
<line x1="98.5" y1="103.5" x2="98.5" y2="128.0" style="stroke:black; stroke-width:1px;" />
<line x1="131.5" y1="71.5" x2="148.0" y2="96.0" style="stroke:black; stroke-width:1px;" />
<line x1="148.0" y1="103.5" x2="123.5" y2="128.0" style="stroke:black; stroke-width:1px;" />
<line x1="148.0" y1="103.5" x2="140.5" y2="128.0" style="stroke:black; stroke-width:1px;" />
<line x1="148.0" y1="103.5" x2="156.5" y2="128.0" style="stroke:black; stroke-width:1px;" />
<line x1="148.0" y1="103.5" x2="172.5" y2="128.0" style="stroke:black; stroke-width:1px;" />
<line x1="131.5" y1="71.5" x2="164.5" y2="96.0" style="stroke:black; stroke-width:1px;" />
<line x1="341.78125" y1="7.5" x2="350.0625" y2="32.0" style="stroke:black; stroke-width:1px;" />
<line x1="350.0625" y1="39.5" x2="350.0625" y2="64.0" style="stroke:black; stroke-width:1px;" />
<line x1="350.0625" y1="71.5" x2="206.5" y2="96.0" style="stroke:black; stroke-width:1px;" />
<line x1="206.5" y1="103.5" x2="206.5" y2="128.0" style="stroke:black; stroke-width:1px;" />
<line x1="350.0625" y1="71.5" x2="299.5" y2="96.0" style="stroke:black; stroke-width:1px;" />
<line x1="299.5" y1="103.5" x2="231.5" y2="128.0" style="stroke:black; stroke-width:1px;" />
<line x1="299.5" y1="103.5" x2="248.5" y2="128.0" style="stroke:black; stroke-width:1px;" />
<line x1="299.5" y1="103.5" x2="265.5" y2="128.0" style="stroke:black; stroke-width:1px;" />
<line x1="299.5" y1="103.5" x2="282.5" y2="128.0" style="stroke:black; stroke-width:1px;" />
<line x1="299.5" y1="103.5" x2="299.5" y2="128.0" style="stroke:black; stroke-width:1px;" />
<line x1="299.5" y1="103.5" x2="317.0" y2="128.0" style="stroke:black; stroke-width:1px;" />
<line x1="299.5" y1="103.5" x2="334.5" y2="128.0" style="stroke:black; stroke-width:1px;" />
<line x1="299.5" y1="103.5" x2="351.5" y2="128.0" style="stroke:black; stroke-width:1px;" />
<line x1="299.5" y1="103.5" x2="367.5" y2="128.0" style="stroke:black; stroke-width:1px;" />
<line x1="350.0625" y1="71.5" x2="362.0416666666667" y2="96.0" style="stroke:black; stroke-width:1px;" />
<line x1="350.0625" y1="71.5" x2="422.58333333333337" y2="96.0" style="stroke:black; stroke-width:1px;" />
<line x1="350.0625" y1="71.5" x2="493.625" y2="96.0" style="stroke:black; stroke-width:1px;" />
<line x1="493.625" y1="103.5" x2="382.5" y2="128.0" style="stroke:black; stroke-width:1px;" />
<line x1="493.625" y1="103.5" x2="419.0" y2="128.0" style="stroke:black; stroke-width:1px;" />
<line x1="419.0" y1="135.5" x2="382.25" y2="160.0" style="stroke:black; stroke-width:1px;" />
<line x1="382.25" y1="167.5" x2="382.25" y2="192.0" style="stroke:black; stroke-width:1px;" />
<line x1="382.25" y1="199.5" x2="357.75" y2="224.0" style="stroke:black; stroke-width:1px;" />
<line x1="382.25" y1="199.5" x2="374.75" y2="224.0" style="stroke:black; stroke-width:1px;" />
<line x1="382.25" y1="199.5" x2="390.75" y2="224.0" style="stroke:black; stroke-width:1px;" />
<line x1="382.25" y1="199.5" x2="406.75" y2="224.0" style="stroke:black; stroke-width:1px;" />
<line x1="419.0" y1="135.5" x2="414.75" y2="160.0" style="stroke:black; stroke-width:1px;" />
<line x1="419.0" y1="135.5" x2="455.75" y2="160.0" style="stroke:black; stroke-width:1px;" />
<line x1="455.75" y1="167.5" x2="455.75" y2="192.0" style="stroke:black; stroke-width:1px;" />
<line x1="455.75" y1="199.5" x2="455.75" y2="224.0" style="stroke:black; stroke-width:1px;" />
<line x1="455.75" y1="231.5" x2="427.25" y2="256.0" style="stroke:black; stroke-width:1px;" />
<line x1="455.75" y1="231.5" x2="455.75" y2="256.0" style="stroke:black; stroke-width:1px;" />
<line x1="455.75" y1="263.5" x2="455.75" y2="288.0" style="stroke:black; stroke-width:1px;" />
<line x1="455.75" y1="231.5" x2="484.25" y2="256.0" style="stroke:black; stroke-width:1px;" />
<line x1="493.625" y1="103.5" x2="495.25" y2="128.0" style="stroke:black; stroke-width:1px;" />
<line x1="495.25" y1="135.5" x2="495.25" y2="160.0" style="stroke:black; stroke-width:1px;" />
<line x1="493.625" y1="103.5" x2="568.25" y2="128.0" style="stroke:black; stroke-width:1px;" />
<line x1="568.25" y1="135.5" x2="522.25" y2="160.0" style="stroke:black; stroke-width:1px;" />
<line x1="568.25" y1="135.5" x2="574.75" y2="160.0" style="stroke:black; stroke-width:1px;" />
<line x1="574.75" y1="167.5" x2="574.75" y2="192.0" style="stroke:black; stroke-width:1px;" />
<line x1="574.75" y1="199.5" x2="574.75" y2="224.0" style="stroke:black; stroke-width:1px;" />
<line x1="574.75" y1="231.5" x2="550.25" y2="256.0" style="stroke:black; stroke-width:1px;" />
<line x1="574.75" y1="231.5" x2="567.25" y2="256.0" style="stroke:black; stroke-width:1px;" />
<line x1="574.75" y1="231.5" x2="583.25" y2="256.0" style="stroke:black; stroke-width:1px;" />
<line x1="574.75" y1="231.5" x2="599.25" y2="256.0" style="stroke:black; stroke-width:1px;" />
<line x1="568.25" y1="135.5" x2="614.25" y2="160.0" style="stroke:black; stroke-width:1px;" />
<line x1="493.625" y1="103.5" x2="604.75" y2="128.0" style="stroke:black; stroke-width:1px;" />
<line x1="341.78125" y1="7.5" x2="390.5625" y2="32.0" style="stroke:black; stroke-width:1px;" />
<line x1="341.78125" y1="7.5" x2="407.5625" y2="32.0" style="stroke:black; stroke-width:1px;" />
<line x1="341.78125" y1="7.5" x2="423.5625" y2="32.0" style="stroke:black; stroke-width:1px;" />
<line x1="341.78125" y1="7.5" x2="439.5625" y2="32.0" style="stroke:black; stroke-width:1px;" />
<line x1="341.78125" y1="7.5" x2="456.5625" y2="32.0" style="stroke:black; stroke-width:1px;" />
<line x1="341.78125" y1="7.5" x2="473.5625" y2="32.0" style="stroke:black; stroke-width:1px;" />
<line x1="341.78125" y1="7.5" x2="490.5625" y2="32.0" style="stroke:black; stroke-width:1px;" />
<line x1="341.78125" y1="7.5" x2="507.5625" y2="32.0" style="stroke:black; stroke-width:1px;" />
<line x1="341.78125" y1="7.5" x2="524.5625" y2="32.0" style="stroke:black; stroke-width:1px;" />
<line x1="341.78125" y1="7.5" x2="541.5625" y2="32.0" style="stroke:black; stroke-width:1px;" />
<line x1="341.78125" y1="7.5" x2="559.0625" y2="32.0" style="stroke:black; stroke-width:1px;" />
<line x1="341.78125" y1="7.5" x2="576.5625" y2="32.0" style="stroke:black; stroke-width:1px;" />
<line x1="341.78125" y1="7.5" x2="593.5625" y2="32.0" style="stroke:black; stroke-width:1px;" />
<line x1="341.78125" y1="7.5" x2="609.5625" y2="32.0" style="stroke:black; stroke-width:1px;" />
<line x1="341.78125" y1="7.5" x2="624.5625" y2="32.0" style="stroke:black; stroke-width:1px;" />
<line x1="341.78125" y1="7.5" x2="639.5625" y2="32.0" style="stroke:black; stroke-width:1px;" />
<line x1="341.78125" y1="7.5" x2="654.0625" y2="32.0" style="stroke:black; stroke-width:1px;" />
<line x1="341.78125" y1="7.5" x2="668.5625" y2="32.0" style="stroke:black; stroke-width:1px;" />
<rect x="135.5" y="128.0" width="10.0" height="15.0" style="fill:orange; stroke:rgb(0,0,0);" rx="1"/>
<text x="137" y="137" style="font-family:sans-serif;font-size:10px;">
a
</text>
<rect x="161.0" y="96.0" width="7.0" height="15.0" style="fill:orange; stroke:rgb(0,0,0);" rx="1"/>
<text x="163" y="105" style="font-family:sans-serif;font-size:10px;">
;
</text>
<rect x="363.5" y="128.0" width="8.0" height="15.0" style="fill:orange; stroke:rgb(0,0,0);" rx="1"/>
<text x="365" y="137" style="font-family:sans-serif;font-size:10px;">
r
</text>
<rect x="361.75" y="160.0" width="41.0" height="15.0" style="fill:orange; stroke:rgb(0,0,0);" rx="1"/>
<text x="363" y="169" style="font-family:sans-serif;font-size:10px;">
location
</text>
<rect x="386.75" y="224.0" width="8.0" height="15.0" style="fill:orange; stroke:rgb(0,0,0);" rx="1"/>
<text x="388" y="233" style="font-family:sans-serif;font-size:10px;">
r
</text>
<rect x="610.75" y="160.0" width="7.0" height="15.0" style="fill:orange; stroke:rgb(0,0,0);" rx="1"/>
<text x="612" y="169" style="font-family:sans-serif;font-size:10px;">
;
</text>
<rect x="553.5625" y="32.0" width="11.0" height="15.0" style="fill:orange; stroke:rgb(0,0,0);" rx="1"/>
<text x="555" y="41" style="font-family:sans-serif;font-size:10px;">
C
</text>
<rect x="193.5" y="128.0" width="26.0" height="15.0" style="fill:orange; stroke:rgb(0,0,0);" rx="1"/>
<text x="195" y="137" style="font-family:sans-serif;font-size:10px;">
char
</text>
<rect x="0.0" y="32.0" width="30.0" height="15.0" style="fill:orange; stroke:rgb(0,0,0);" rx="1"/>
<text x="2" y="41" style="font-family:sans-serif;font-size:10px;">
class
</text>
<rect x="519.5625" y="32.0" width="10.0" height="15.0" style="fill:orange; stroke:rgb(0,0,0);" rx="1"/>
<text x="521" y="41" style="font-family:sans-serif;font-size:10px;">
v
</text>
<rect x="319.78125" y="0.0" width="44.0" height="15.0" style="fill:orange; stroke:rgb(0,0,0);" rx="1"/>
<text x="321" y="9" style="font-family:sans-serif;font-size:10px;">
program
</text>
<rect x="450.75" y="288.0" width="10.0" height="15.0" style="fill:orange; stroke:rgb(0,0,0);" rx="1"/>
<text x="452" y="297" style="font-family:sans-serif;font-size:10px;">
a
</text>
<rect x="260.5" y="128.0" width="10.0" height="15.0" style="fill:orange; stroke:rgb(0,0,0);" rx="1"/>
<text x="262" y="137" style="font-family:sans-serif;font-size:10px;">
e
</text>
<rect x="401.75" y="224.0" width="10.0" height="15.0" style="fill:orange; stroke:rgb(0,0,0);" rx="1"/>
<text x="403" y="233" style="font-family:sans-serif;font-size:10px;">
1
</text>
<rect x="293.5" y="96.0" width="12.0" height="15.0" style="fill:orange; stroke:rgb(0,0,0);" rx="1"/>
<text x="295" y="105" style="font-family:sans-serif;font-size:10px;">
id
</text>
<rect x="142.0" y="96.0" width="12.0" height="15.0" style="fill:orange; stroke:rgb(0,0,0);" rx="1"/>
<text x="144" y="105" style="font-family:sans-serif;font-size:10px;">
id
</text>
<rect x="369.75" y="224.0" width="10.0" height="15.0" style="fill:orange; stroke:rgb(0,0,0);" rx="1"/>
<text x="371" y="233" style="font-family:sans-serif;font-size:10px;">
a
</text>
<rect x="441.25" y="192.0" width="29.0" height="15.0" style="fill:orange; stroke:rgb(0,0,0);" rx="1"/>
<text x="443" y="201" style="font-family:sans-serif;font-size:10px;">
literal
</text>
<rect x="485.5625" y="32.0" width="10.0" height="15.0" style="fill:orange; stroke:rgb(0,0,0);" rx="1"/>
<text x="487" y="41" style="font-family:sans-serif;font-size:10px;">
u
</text>
<rect x="226.5" y="128.0" width="10.0" height="15.0" style="fill:orange; stroke:rgb(0,0,0);" rx="1"/>
<text x="228" y="137" style="font-family:sans-serif;font-size:10px;">
n
</text>
<rect x="600.75" y="128.0" width="8.0" height="15.0" style="fill:orange; stroke:rgb(0,0,0);" rx="1"/>
<text x="602" y="137" style="font-family:sans-serif;font-size:10px;">
}
</text>
<rect x="385.5625" y="32.0" width="10.0" height="15.0" style="fill:orange; stroke:rgb(0,0,0);" rx="1"/>
<text x="387" y="41" style="font-family:sans-serif;font-size:10px;">
v
</text>
<rect x="418.58333333333337" y="96.0" width="8.0" height="15.0" style="fill:orange; stroke:rgb(0,0,0);" rx="1"/>
<text x="420" y="105" style="font-family:sans-serif;font-size:10px;">
)
</text>
<rect x="554.25" y="192.0" width="41.0" height="15.0" style="fill:orange; stroke:rgb(0,0,0);" rx="1"/>
<text x="556" y="201" style="font-family:sans-serif;font-size:10px;">
location
</text>
<rect x="491.75" y="160.0" width="7.0" height="15.0" style="fill:orange; stroke:rgb(0,0,0);" rx="1"/>
<text x="493" y="169" style="font-family:sans-serif;font-size:10px;">
;
</text>
<rect x="505.75" y="160.0" width="33.0" height="15.0" style="fill:orange; stroke:rgb(0,0,0);" rx="1"/>
<text x="507" y="169" style="font-family:sans-serif;font-size:10px;">
return
</text>
<rect x="571.5625" y="32.0" width="10.0" height="15.0" style="fill:orange; stroke:rgb(0,0,0);" rx="1"/>
<text x="573" y="41" style="font-family:sans-serif;font-size:10px;">
h
</text>
<rect x="481.25" y="256.0" width="6.0" height="15.0" style="fill:orange; stroke:rgb(0,0,0);" rx="1"/>
<text x="483" y="265" style="font-family:sans-serif;font-size:10px;">
'
</text>
<rect x="402.5625" y="32.0" width="10.0" height="15.0" style="fill:orange; stroke:rgb(0,0,0);" rx="1"/>
<text x="404" y="41" style="font-family:sans-serif;font-size:10px;">
a
</text>
<rect x="427.25" y="224.0" width="57.0" height="15.0" style="fill:orange; stroke:rgb(0,0,0);" rx="1"/>
<text x="429" y="233" style="font-family:sans-serif;font-size:10px;">
char_literal
</text>
<rect x="568.75" y="224.0" width="12.0" height="15.0" style="fill:orange; stroke:rgb(0,0,0);" rx="1"/>
<text x="570" y="233" style="font-family:sans-serif;font-size:10px;">
id
</text>
<rect x="451.5625" y="32.0" width="10.0" height="15.0" style="fill:orange; stroke:rgb(0,0,0);" rx="1"/>
<text x="453" y="41" style="font-family:sans-serif;font-size:10px;">
=
</text>
<rect x="588.5625" y="32.0" width="10.0" height="15.0" style="fill:orange; stroke:rgb(0,0,0);" rx="1"/>
<text x="590" y="41" style="font-family:sans-serif;font-size:10px;">
a
</text>
<rect x="605.5625" y="32.0" width="8.0" height="15.0" style="fill:orange; stroke:rgb(0,0,0);" rx="1"/>
<text x="607" y="41" style="font-family:sans-serif;font-size:10px;">
r
</text>
<rect x="303.5625" y="64.0" width="93.0" height="15.0" style="fill:orange; stroke:rgb(0,0,0);" rx="1"/>
<text x="305" y="73" style="font-family:sans-serif;font-size:10px;">
methodDeclaration
</text>
<rect x="103.0" y="32.0" width="57.0" height="15.0" style="fill:orange; stroke:rgb(0,0,0);" rx="1"/>
<text x="105" y="41" style="font-family:sans-serif;font-size:10px;">
declaration
</text>
<rect x="545.75" y="160.0" width="58.0" height="15.0" style="fill:orange; stroke:rgb(0,0,0);" rx="1"/>
<text x="547" y="169" style="font-family:sans-serif;font-size:10px;">
expression
</text>
<rect x="243.5" y="128.0" width="10.0" height="15.0" style="fill:orange; stroke:rgb(0,0,0);" rx="1"/>
<text x="245" y="137" style="font-family:sans-serif;font-size:10px;">
u
</text>
<rect x="393.5" y="128.0" width="51.0" height="15.0" style="fill:orange; stroke:rgb(0,0,0);" rx="1"/>
<text x="395" y="137" style="font-family:sans-serif;font-size:10px;">
statement
</text>
<rect x="175.0" y="96.0" width="63.0" height="15.0" style="fill:orange; stroke:rgb(0,0,0);" rx="1"/>
<text x="177" y="105" style="font-family:sans-serif;font-size:10px;">
methodType
</text>
<rect x="424.25" y="256.0" width="6.0" height="15.0" style="fill:orange; stroke:rgb(0,0,0);" rx="1"/>
<text x="426" y="265" style="font-family:sans-serif;font-size:10px;">
'
</text>
<rect x="479.125" y="96.0" width="29.0" height="15.0" style="fill:orange; stroke:rgb(0,0,0);" rx="1"/>
<text x="481" y="105" style="font-family:sans-serif;font-size:10px;">
block
</text>
<rect x="434.5625" y="32.0" width="10.0" height="15.0" style="fill:orange; stroke:rgb(0,0,0);" rx="1"/>
<text x="436" y="41" style="font-family:sans-serif;font-size:10px;">
1
</text>
<rect x="378.5" y="128.0" width="8.0" height="15.0" style="fill:orange; stroke:rgb(0,0,0);" rx="1"/>
<text x="380" y="137" style="font-family:sans-serif;font-size:10px;">
{
</text>
<rect x="346.5" y="128.0" width="10.0" height="15.0" style="fill:orange; stroke:rgb(0,0,0);" rx="1"/>
<text x="348" y="137" style="font-family:sans-serif;font-size:10px;">
a
</text>
<rect x="94.5" y="64.0" width="74.0" height="15.0" style="fill:orange; stroke:rgb(0,0,0);" rx="1"/>
<text x="96" y="73" style="font-family:sans-serif;font-size:10px;">
varDeclaration
</text>
<rect x="358.0416666666667" y="96.0" width="8.0" height="15.0" style="fill:orange; stroke:rgb(0,0,0);" rx="1"/>
<text x="360" y="105" style="font-family:sans-serif;font-size:10px;">
(
</text>
<rect x="88.0" y="32.0" width="8.0" height="15.0" style="fill:orange; stroke:rgb(0,0,0);" rx="1"/>
<text x="90" y="41" style="font-family:sans-serif;font-size:10px;">
{
</text>
<rect x="294.5" y="128.0" width="10.0" height="15.0" style="fill:orange; stroke:rgb(0,0,0);" rx="1"/>
<text x="296" y="137" style="font-family:sans-serif;font-size:10px;">
o
</text>
<rect x="469.75" y="128.0" width="51.0" height="15.0" style="fill:orange; stroke:rgb(0,0,0);" rx="1"/>
<text x="471" y="137" style="font-family:sans-serif;font-size:10px;">
statement
</text>
<rect x="311.5" y="128.0" width="11.0" height="15.0" style="fill:orange; stroke:rgb(0,0,0);" rx="1"/>
<text x="313" y="137" style="font-family:sans-serif;font-size:10px;">
C
</text>
<rect x="620.5625" y="32.0" width="8.0" height="15.0" style="fill:orange; stroke:rgb(0,0,0);" rx="1"/>
<text x="622" y="41" style="font-family:sans-serif;font-size:10px;">
(
</text>
<rect x="376.25" y="192.0" width="12.0" height="15.0" style="fill:orange; stroke:rgb(0,0,0);" rx="1"/>
<text x="378" y="201" style="font-family:sans-serif;font-size:10px;">
id
</text>
<rect x="664.5625" y="32.0" width="8.0" height="15.0" style="fill:orange; stroke:rgb(0,0,0);" rx="1"/>
<text x="666" y="41" style="font-family:sans-serif;font-size:10px;">
}
</text>
<rect x="118.5" y="128.0" width="10.0" height="15.0" style="fill:orange; stroke:rgb(0,0,0);" rx="1"/>
<text x="120" y="137" style="font-family:sans-serif;font-size:10px;">
v
</text>
<rect x="352.75" y="224.0" width="10.0" height="15.0" style="fill:orange; stroke:rgb(0,0,0);" rx="1"/>
<text x="354" y="233" style="font-family:sans-serif;font-size:10px;">
v
</text>
<rect x="542.75" y="128.0" width="51.0" height="15.0" style="fill:orange; stroke:rgb(0,0,0);" rx="1"/>
<text x="544" y="137" style="font-family:sans-serif;font-size:10px;">
statement
</text>
<rect x="502.5625" y="32.0" width="10.0" height="15.0" style="fill:orange; stroke:rgb(0,0,0);" rx="1"/>
<text x="504" y="41" style="font-family:sans-serif;font-size:10px;">
e
</text>
<rect x="321.5625" y="32.0" width="57.0" height="15.0" style="fill:orange; stroke:rgb(0,0,0);" rx="1"/>
<text x="323" y="41" style="font-family:sans-serif;font-size:10px;">
declaration
</text>
<rect x="167.5" y="128.0" width="10.0" height="15.0" style="fill:orange; stroke:rgb(0,0,0);" rx="1"/>
<text x="169" y="137" style="font-family:sans-serif;font-size:10px;">
1
</text>
<rect x="329.5" y="128.0" width="10.0" height="15.0" style="fill:orange; stroke:rgb(0,0,0);" rx="1"/>
<text x="331" y="137" style="font-family:sans-serif;font-size:10px;">
h
</text>
<rect x="277.5" y="128.0" width="10.0" height="15.0" style="fill:orange; stroke:rgb(0,0,0);" rx="1"/>
<text x="279" y="137" style="font-family:sans-serif;font-size:10px;">
v
</text>
<rect x="85.5" y="128.0" width="26.0" height="15.0" style="fill:orange; stroke:rgb(0,0,0);" rx="1"/>
<text x="87" y="137" style="font-family:sans-serif;font-size:10px;">
char
</text>
<rect x="409.75" y="160.0" width="10.0" height="15.0" style="fill:orange; stroke:rgb(0,0,0);" rx="1"/>
<text x="411" y="169" style="font-family:sans-serif;font-size:10px;">
=
</text>
<rect x="426.75" y="160.0" width="58.0" height="15.0" style="fill:orange; stroke:rgb(0,0,0);" rx="1"/>
<text x="428" y="169" style="font-family:sans-serif;font-size:10px;">
expression
</text>
<rect x="152.5" y="128.0" width="8.0" height="15.0" style="fill:orange; stroke:rgb(0,0,0);" rx="1"/>
<text x="154" y="137" style="font-family:sans-serif;font-size:10px;">
r
</text>
<rect x="635.5625" y="32.0" width="8.0" height="15.0" style="fill:orange; stroke:rgb(0,0,0);" rx="1"/>
<text x="637" y="41" style="font-family:sans-serif;font-size:10px;">
)
</text>
<rect x="37.0" y="32.0" width="44.0" height="15.0" style="fill:orange; stroke:rgb(0,0,0);" rx="1"/>
<text x="39" y="41" style="font-family:sans-serif;font-size:10px;">
Program
</text>
<rect x="437.25" y="256.0" width="37.0" height="15.0" style="fill:orange; stroke:rgb(0,0,0);" rx="1"/>
<text x="439" y="265" style="font-family:sans-serif;font-size:10px;">
charito
</text>
<rect x="594.25" y="256.0" width="10.0" height="15.0" style="fill:orange; stroke:rgb(0,0,0);" rx="1"/>
<text x="596" y="265" style="font-family:sans-serif;font-size:10px;">
1
</text>
<rect x="579.25" y="256.0" width="8.0" height="15.0" style="fill:orange; stroke:rgb(0,0,0);" rx="1"/>
<text x="581" y="265" style="font-family:sans-serif;font-size:10px;">
r
</text>
<rect x="76.5" y="96.0" width="44.0" height="15.0" style="fill:orange; stroke:rgb(0,0,0);" rx="1"/>
<text x="78" y="105" style="font-family:sans-serif;font-size:10px;">
varType
</text>
<rect x="468.5625" y="32.0" width="10.0" height="15.0" style="fill:orange; stroke:rgb(0,0,0);" rx="1"/>
<text x="470" y="41" style="font-family:sans-serif;font-size:10px;">
n
</text>
<rect x="545.25" y="256.0" width="10.0" height="15.0" style="fill:orange; stroke:rgb(0,0,0);" rx="1"/>
<text x="547" y="265" style="font-family:sans-serif;font-size:10px;">
v
</text>
<rect x="536.5625" y="32.0" width="10.0" height="15.0" style="fill:orange; stroke:rgb(0,0,0);" rx="1"/>
<text x="538" y="41" style="font-family:sans-serif;font-size:10px;">
o
</text>
<rect x="419.5625" y="32.0" width="8.0" height="15.0" style="fill:orange; stroke:rgb(0,0,0);" rx="1"/>
<text x="421" y="41" style="font-family:sans-serif;font-size:10px;">
r
</text>
<rect x="650.5625" y="32.0" width="7.0" height="15.0" style="fill:orange; stroke:rgb(0,0,0);" rx="1"/>
<text x="652" y="41" style="font-family:sans-serif;font-size:10px;">
;
</text>
<rect x="562.25" y="256.0" width="10.0" height="15.0" style="fill:orange; stroke:rgb(0,0,0);" rx="1"/>
<text x="564" y="265" style="font-family:sans-serif;font-size:10px;">
a
</text>
</svg>