<svg width="1237.5" height="684.2" xmlns="http://www.w3.org/2000/svg" xmlns:xlink="http://www.w3.org/1999/xlink"><line x1="256.65625" y1="7.5" x2="15.0" y2="32.0" style="stroke:black; stroke-width:1px;" />
<line x1="256.65625" y1="7.5" x2="59.0" y2="32.0" style="stroke:black; stroke-width:1px;" />
<line x1="256.65625" y1="7.5" x2="92.0" y2="32.0" style="stroke:black; stroke-width:1px;" />
<line x1="256.65625" y1="7.5" x2="131.5" y2="32.0" style="stroke:black; stroke-width:1px;" />
<line x1="131.5" y1="39.5" x2="131.5" y2="64.0" style="stroke:black; stroke-width:1px;" />
<line x1="131.5" y1="71.5" x2="102.75" y2="96.0" style="stroke:black; stroke-width:1px;" />
<line x1="102.75" y1="103.5" x2="102.75" y2="128.0" style="stroke:black; stroke-width:1px;" />
<line x1="131.5" y1="71.5" x2="143.75" y2="96.0" style="stroke:black; stroke-width:1px;" />
<line x1="143.75" y1="103.5" x2="132.75" y2="128.0" style="stroke:black; stroke-width:1px;" />
<line x1="143.75" y1="103.5" x2="154.75" y2="128.0" style="stroke:black; stroke-width:1px;" />
<line x1="131.5" y1="71.5" x2="160.25" y2="96.0" style="stroke:black; stroke-width:1px;" />
<line x1="256.65625" y1="7.5" x2="297.8125" y2="32.0" style="stroke:black; stroke-width:1px;" />
<line x1="297.8125" y1="39.5" x2="297.8125" y2="64.0" style="stroke:black; stroke-width:1px;" />
<line x1="297.8125" y1="71.5" x2="202.25" y2="96.0" style="stroke:black; stroke-width:1px;" />
<line x1="202.25" y1="103.5" x2="202.25" y2="128.0" style="stroke:black; stroke-width:1px;" />
<line x1="297.8125" y1="71.5" x2="246.75" y2="96.0" style="stroke:black; stroke-width:1px;" />
<line x1="246.75" y1="103.5" x2="246.75" y2="128.0" style="stroke:black; stroke-width:1px;" />
<line x1="297.8125" y1="71.5" x2="293.45833333333337" y2="96.0" style="stroke:black; stroke-width:1px;" />
<line x1="297.8125" y1="71.5" x2="338.1666666666667" y2="96.0" style="stroke:black; stroke-width:1px;" />
<line x1="297.8125" y1="71.5" x2="393.375" y2="96.0" style="stroke:black; stroke-width:1px;" />
<line x1="393.375" y1="103.5" x2="282.25" y2="128.0" style="stroke:black; stroke-width:1px;" />
<line x1="393.375" y1="103.5" x2="318.75" y2="128.0" style="stroke:black; stroke-width:1px;" />
<line x1="318.75" y1="135.5" x2="282.0" y2="160.0" style="stroke:black; stroke-width:1px;" />
<line x1="282.0" y1="167.5" x2="282.0" y2="192.0" style="stroke:black; stroke-width:1px;" />
<line x1="282.0" y1="199.5" x2="271.0" y2="224.0" style="stroke:black; stroke-width:1px;" />
<line x1="282.0" y1="199.5" x2="293.0" y2="224.0" style="stroke:black; stroke-width:1px;" />
<line x1="318.75" y1="135.5" x2="314.5" y2="160.0" style="stroke:black; stroke-width:1px;" />
<line x1="318.75" y1="135.5" x2="355.5" y2="160.0" style="stroke:black; stroke-width:1px;" />
<line x1="355.5" y1="167.5" x2="355.5" y2="192.0" style="stroke:black; stroke-width:1px;" />
<line x1="355.5" y1="199.5" x2="355.5" y2="224.0" style="stroke:black; stroke-width:1px;" />
<line x1="355.5" y1="231.5" x2="327.0" y2="256.0" style="stroke:black; stroke-width:1px;" />
<line x1="355.5" y1="231.5" x2="355.5" y2="256.0" style="stroke:black; stroke-width:1px;" />
<line x1="355.5" y1="263.5" x2="355.5" y2="288.0" style="stroke:black; stroke-width:1px;" />
<line x1="355.5" y1="231.5" x2="384.0" y2="256.0" style="stroke:black; stroke-width:1px;" />
<line x1="393.375" y1="103.5" x2="395.0" y2="128.0" style="stroke:black; stroke-width:1px;" />
<line x1="395.0" y1="135.5" x2="395.0" y2="160.0" style="stroke:black; stroke-width:1px;" />
<line x1="393.375" y1="103.5" x2="468.0" y2="128.0" style="stroke:black; stroke-width:1px;" />
<line x1="468.0" y1="135.5" x2="422.0" y2="160.0" style="stroke:black; stroke-width:1px;" />
<line x1="468.0" y1="135.5" x2="474.5" y2="160.0" style="stroke:black; stroke-width:1px;" />
<line x1="474.5" y1="167.5" x2="474.5" y2="192.0" style="stroke:black; stroke-width:1px;" />
<line x1="474.5" y1="199.5" x2="474.5" y2="224.0" style="stroke:black; stroke-width:1px;" />
<line x1="474.5" y1="231.5" x2="463.5" y2="256.0" style="stroke:black; stroke-width:1px;" />
<line x1="474.5" y1="231.5" x2="485.5" y2="256.0" style="stroke:black; stroke-width:1px;" />
<line x1="468.0" y1="135.5" x2="514.0" y2="160.0" style="stroke:black; stroke-width:1px;" />
<line x1="393.375" y1="103.5" x2="504.5" y2="128.0" style="stroke:black; stroke-width:1px;" />
<line x1="256.65625" y1="7.5" x2="343.3125" y2="32.0" style="stroke:black; stroke-width:1px;" />
<line x1="256.65625" y1="7.5" x2="365.3125" y2="32.0" style="stroke:black; stroke-width:1px;" />
<line x1="256.65625" y1="7.5" x2="382.3125" y2="32.0" style="stroke:black; stroke-width:1px;" />
<line x1="256.65625" y1="7.5" x2="418.8125" y2="32.0" style="stroke:black; stroke-width:1px;" />
<line x1="256.65625" y1="7.5" x2="454.3125" y2="32.0" style="stroke:black; stroke-width:1px;" />
<line x1="256.65625" y1="7.5" x2="469.3125" y2="32.0" style="stroke:black; stroke-width:1px;" />
<line x1="256.65625" y1="7.5" x2="483.8125" y2="32.0" style="stroke:black; stroke-width:1px;" />
<line x1="256.65625" y1="7.5" x2="498.3125" y2="32.0" style="stroke:black; stroke-width:1px;" />
<rect x="289.45833333333337" y="96.0" width="8.0" height="15.0" style="fill:orange; stroke:rgb(0,0,0);" rx="1"/>
<text x="291" y="105" style="font-family:sans-serif;font-size:10px;">
(
</text>
<rect x="324.0" y="256.0" width="6.0" height="15.0" style="fill:orange; stroke:rgb(0,0,0);" rx="1"/>
<text x="326" y="265" style="font-family:sans-serif;font-size:10px;">
'
</text>
<rect x="465.3125" y="32.0" width="8.0" height="15.0" style="fill:orange; stroke:rgb(0,0,0);" rx="1"/>
<text x="467" y="41" style="font-family:sans-serif;font-size:10px;">
)
</text>
<rect x="261.5" y="160.0" width="41.0" height="15.0" style="fill:orange; stroke:rgb(0,0,0);" rx="1"/>
<text x="263" y="169" style="font-family:sans-serif;font-size:10px;">
location
</text>
<rect x="189.25" y="128.0" width="26.0" height="15.0" style="fill:orange; stroke:rgb(0,0,0);" rx="1"/>
<text x="191" y="137" style="font-family:sans-serif;font-size:10px;">
char
</text>
<rect x="251.3125" y="64.0" width="93.0" height="15.0" style="fill:orange; stroke:rgb(0,0,0);" rx="1"/>
<text x="253" y="73" style="font-family:sans-serif;font-size:10px;">
methodDeclaration
</text>
<rect x="327.0" y="224.0" width="57.0" height="15.0" style="fill:orange; stroke:rgb(0,0,0);" rx="1"/>
<text x="329" y="233" style="font-family:sans-serif;font-size:10px;">
char_literal
</text>
<rect x="276.0" y="192.0" width="12.0" height="15.0" style="fill:orange; stroke:rgb(0,0,0);" rx="1"/>
<text x="278" y="201" style="font-family:sans-serif;font-size:10px;">
id
</text>
<rect x="468.5" y="224.0" width="12.0" height="15.0" style="fill:orange; stroke:rgb(0,0,0);" rx="1"/>
<text x="470" y="233" style="font-family:sans-serif;font-size:10px;">
id
</text>
<rect x="454.0" y="192.0" width="41.0" height="15.0" style="fill:orange; stroke:rgb(0,0,0);" rx="1"/>
<text x="456" y="201" style="font-family:sans-serif;font-size:10px;">
location
</text>
<rect x="37.0" y="32.0" width="44.0" height="15.0" style="fill:orange; stroke:rgb(0,0,0);" rx="1"/>
<text x="39" y="41" style="font-family:sans-serif;font-size:10px;">
Program
</text>
<rect x="269.3125" y="32.0" width="57.0" height="15.0" style="fill:orange; stroke:rgb(0,0,0);" rx="1"/>
<text x="271" y="41" style="font-family:sans-serif;font-size:10px;">
declaration
</text>
<rect x="341.0" y="192.0" width="29.0" height="15.0" style="fill:orange; stroke:rgb(0,0,0);" rx="1"/>
<text x="343" y="201" style="font-family:sans-serif;font-size:10px;">
literal
</text>
<rect x="381.0" y="256.0" width="6.0" height="15.0" style="fill:orange; stroke:rgb(0,0,0);" rx="1"/>
<text x="383" y="265" style="font-family:sans-serif;font-size:10px;">
'
</text>
<rect x="377.3125" y="32.0" width="10.0" height="15.0" style="fill:orange; stroke:rgb(0,0,0);" rx="1"/>
<text x="379" y="41" style="font-family:sans-serif;font-size:10px;">
=
</text>
<rect x="89.75" y="128.0" width="26.0" height="15.0" style="fill:orange; stroke:rgb(0,0,0);" rx="1"/>
<text x="91" y="137" style="font-family:sans-serif;font-size:10px;">
char
</text>
<rect x="88.0" y="32.0" width="8.0" height="15.0" style="fill:orange; stroke:rgb(0,0,0);" rx="1"/>
<text x="90" y="41" style="font-family:sans-serif;font-size:10px;">
{
</text>
<rect x="137.75" y="96.0" width="12.0" height="15.0" style="fill:orange; stroke:rgb(0,0,0);" rx="1"/>
<text x="139" y="105" style="font-family:sans-serif;font-size:10px;">
id
</text>
<rect x="293.25" y="128.0" width="51.0" height="15.0" style="fill:orange; stroke:rgb(0,0,0);" rx="1"/>
<text x="295" y="137" style="font-family:sans-serif;font-size:10px;">
statement
</text>
<rect x="103.0" y="32.0" width="57.0" height="15.0" style="fill:orange; stroke:rgb(0,0,0);" rx="1"/>
<text x="105" y="41" style="font-family:sans-serif;font-size:10px;">
declaration
</text>
<rect x="80.75" y="96.0" width="44.0" height="15.0" style="fill:orange; stroke:rgb(0,0,0);" rx="1"/>
<text x="82" y="105" style="font-family:sans-serif;font-size:10px;">
varType
</text>
<rect x="337.0" y="256.0" width="37.0" height="15.0" style="fill:orange; stroke:rgb(0,0,0);" rx="1"/>
<text x="339" y="265" style="font-family:sans-serif;font-size:10px;">
charito
</text>
<rect x="234.65625" y="0.0" width="44.0" height="15.0" style="fill:orange; stroke:rgb(0,0,0);" rx="1"/>
<text x="236" y="9" style="font-family:sans-serif;font-size:10px;">
program
</text>
<rect x="122.75" y="128.0" width="20.0" height="15.0" style="fill:orange; stroke:rgb(0,0,0);" rx="1"/>
<text x="124" y="137" style="font-family:sans-serif;font-size:10px;">
var
</text>
<rect x="261.0" y="224.0" width="20.0" height="15.0" style="fill:orange; stroke:rgb(0,0,0);" rx="1"/>
<text x="263" y="233" style="font-family:sans-serif;font-size:10px;">
var
</text>
<rect x="278.25" y="128.0" width="8.0" height="15.0" style="fill:orange; stroke:rgb(0,0,0);" rx="1"/>
<text x="280" y="137" style="font-family:sans-serif;font-size:10px;">
{
</text>
<rect x="494.3125" y="32.0" width="8.0" height="15.0" style="fill:orange; stroke:rgb(0,0,0);" rx="1"/>
<text x="496" y="41" style="font-family:sans-serif;font-size:10px;">
}
</text>
<rect x="326.5" y="160.0" width="58.0" height="15.0" style="fill:orange; stroke:rgb(0,0,0);" rx="1"/>
<text x="328" y="169" style="font-family:sans-serif;font-size:10px;">
expression
</text>
<rect x="369.5" y="128.0" width="51.0" height="15.0" style="fill:orange; stroke:rgb(0,0,0);" rx="1"/>
<text x="371" y="137" style="font-family:sans-serif;font-size:10px;">
statement
</text>
<rect x="500.5" y="128.0" width="8.0" height="15.0" style="fill:orange; stroke:rgb(0,0,0);" rx="1"/>
<text x="502" y="137" style="font-family:sans-serif;font-size:10px;">
}
</text>
<rect x="360.3125" y="32.0" width="10.0" height="15.0" style="fill:orange; stroke:rgb(0,0,0);" rx="1"/>
<text x="362" y="41" style="font-family:sans-serif;font-size:10px;">
1
</text>
<rect x="222.25" y="128.0" width="49.0" height="15.0" style="fill:orange; stroke:rgb(0,0,0);" rx="1"/>
<text x="224" y="137" style="font-family:sans-serif;font-size:10px;">
newChar
</text>
<rect x="453.5" y="256.0" width="20.0" height="15.0" style="fill:orange; stroke:rgb(0,0,0);" rx="1"/>
<text x="455" y="265" style="font-family:sans-serif;font-size:10px;">
var
</text>
<rect x="405.5" y="160.0" width="33.0" height="15.0" style="fill:orange; stroke:rgb(0,0,0);" rx="1"/>
<text x="407" y="169" style="font-family:sans-serif;font-size:10px;">
return
</text>
<rect x="445.5" y="160.0" width="58.0" height="15.0" style="fill:orange; stroke:rgb(0,0,0);" rx="1"/>
<text x="447" y="169" style="font-family:sans-serif;font-size:10px;">
expression
</text>
<rect x="156.75" y="96.0" width="7.0" height="15.0" style="fill:orange; stroke:rgb(0,0,0);" rx="1"/>
<text x="158" y="105" style="font-family:sans-serif;font-size:10px;">
;
</text>
<rect x="333.3125" y="32.0" width="20.0" height="15.0" style="fill:orange; stroke:rgb(0,0,0);" rx="1"/>
<text x="335" y="41" style="font-family:sans-serif;font-size:10px;">
var
</text>
<rect x="94.5" y="64.0" width="74.0" height="15.0" style="fill:orange; stroke:rgb(0,0,0);" rx="1"/>
<text x="96" y="73" style="font-family:sans-serif;font-size:10px;">
varDeclaration
</text>
<rect x="149.75" y="128.0" width="10.0" height="15.0" style="fill:orange; stroke:rgb(0,0,0);" rx="1"/>
<text x="151" y="137" style="font-family:sans-serif;font-size:10px;">
1
</text>
<rect x="480.5" y="256.0" width="10.0" height="15.0" style="fill:orange; stroke:rgb(0,0,0);" rx="1"/>
<text x="482" y="265" style="font-family:sans-serif;font-size:10px;">
1
</text>
<rect x="309.5" y="160.0" width="10.0" height="15.0" style="fill:orange; stroke:rgb(0,0,0);" rx="1"/>
<text x="311" y="169" style="font-family:sans-serif;font-size:10px;">
=
</text>
<rect x="288.0" y="224.0" width="10.0" height="15.0" style="fill:orange; stroke:rgb(0,0,0);" rx="1"/>
<text x="290" y="233" style="font-family:sans-serif;font-size:10px;">
1
</text>
<rect x="378.875" y="96.0" width="29.0" height="15.0" style="fill:orange; stroke:rgb(0,0,0);" rx="1"/>
<text x="380" y="105" style="font-family:sans-serif;font-size:10px;">
block
</text>
<rect x="334.1666666666667" y="96.0" width="8.0" height="15.0" style="fill:orange; stroke:rgb(0,0,0);" rx="1"/>
<text x="336" y="105" style="font-family:sans-serif;font-size:10px;">
)
</text>
<rect x="391.5" y="160.0" width="7.0" height="15.0" style="fill:orange; stroke:rgb(0,0,0);" rx="1"/>
<text x="393" y="169" style="font-family:sans-serif;font-size:10px;">
;
</text>
<rect x="450.3125" y="32.0" width="8.0" height="15.0" style="fill:orange; stroke:rgb(0,0,0);" rx="1"/>
<text x="452" y="41" style="font-family:sans-serif;font-size:10px;">
(
</text>
<rect x="442.5" y="128.0" width="51.0" height="15.0" style="fill:orange; stroke:rgb(0,0,0);" rx="1"/>
<text x="444" y="137" style="font-family:sans-serif;font-size:10px;">
statement
</text>
<rect x="0.0" y="32.0" width="30.0" height="15.0" style="fill:orange; stroke:rgb(0,0,0);" rx="1"/>
<text x="2" y="41" style="font-family:sans-serif;font-size:10px;">
class
</text>
<rect x="350.5" y="288.0" width="10.0" height="15.0" style="fill:orange; stroke:rgb(0,0,0);" rx="1"/>
<text x="352" y="297" style="font-family:sans-serif;font-size:10px;">
a
</text>
<rect x="394.3125" y="32.0" width="49.0" height="15.0" style="fill:orange; stroke:rgb(0,0,0);" rx="1"/>
<text x="396" y="41" style="font-family:sans-serif;font-size:10px;">
newChar
</text>
<rect x="240.75" y="96.0" width="12.0" height="15.0" style="fill:orange; stroke:rgb(0,0,0);" rx="1"/>
<text x="242" y="105" style="font-family:sans-serif;font-size:10px;">
id
</text>
<rect x="480.3125" y="32.0" width="7.0" height="15.0" style="fill:orange; stroke:rgb(0,0,0);" rx="1"/>
<text x="482" y="41" style="font-family:sans-serif;font-size:10px;">
;
</text>
<rect x="170.75" y="96.0" width="63.0" height="15.0" style="fill:orange; stroke:rgb(0,0,0);" rx="1"/>
<text x="172" y="105" style="font-family:sans-serif;font-size:10px;">
methodType
</text>
<rect x="510.5" y="160.0" width="7.0" height="15.0" style="fill:orange; stroke:rgb(0,0,0);" rx="1"/>
<text x="512" y="169" style="font-family:sans-serif;font-size:10px;">
;
</text>
</svg>